<svg width="24" height="24" viewBox="0 0 24 24" fill="none" xmlns="http://www.w3.org/2000/svg">
<path d="M12 0C5.38338 0 0 5.38292 0 12C0 18.6171 5.38338 24 12 24C18.6166 24 24 18.6171 24 12C24 5.38292 18.6166 0 12 0ZM18.69 7.998L11.3054 16.3057C11.1235 16.5102 10.8702 16.6154 10.6149 16.6154C10.4123 16.6154 10.2088 16.5489 10.0385 16.4132L5.42308 12.7209C5.02523 12.4029 4.96062 11.8218 5.27908 11.4235C5.59708 11.0252 6.17862 10.9606 6.57646 11.2791L10.5074 14.4235L17.31 6.77077C17.6478 6.38954 18.2322 6.35538 18.6129 6.69415C18.9942 7.03338 19.0288 7.61677 18.69 7.998Z" fill="#E1A34E"/>
</svg>
